<?xml version="1.0" encoding="iso-8859-1"?>
<!-- Generator: Adobe Illustrator 23.0.1, SVG Export Plug-In . SVG Version: 6.00 Build 0)  -->
<svg version="1.1" id="Layer_1" xmlns="http://www.w3.org/2000/svg" xmlns:xlink="http://www.w3.org/1999/xlink" x="0px" y="0px"
	 viewBox="0 0 1600 1200" style="enable-background:new 0 0 1600 1200;" xml:space="preserve">
<g>
	<path style="fill:#82FFF9;" d="M778.688,597.778c12.808,7.798,26.862,10.821,41.428,8.148c16.52-3.032,31.691-8.955,36.794-27.676
		c1.332-1.064,1.21-2.608,1.296-4.057c1.018-17.082-16.209-33.841-35.938-34.976c-16.985-3.594-32.632-0.3-46.382,10.139
		C758.216,562.771,759.75,586.248,778.688,597.778z"/>
	<path style="fill:#FF21E4;" d="M605.702,630.382c5.44-0.258,10.938-0.094,16.31-0.841c35.931-4.992,69.567-17.191,102.043-32.941
		c7.543-2.07,14.246-5.853,20.691-10.159c7.35-2.339,11.636-6.255,9.65-15.016c-0.839-3.701,0.296-8.029,2.213-11.557
		c1.793-3.3,0.988-5.099-1.736-7.449c-13.053-11.261-28.147-18.384-44.545-23.209c-4.51-1.327-9.438,1.678-13.587-1.722
		c-0.519-0.451-1.012-1.26-1.561-1.3c-18.208-1.317-35.812,0.989-52.446,8.942c-0.528,0.1-0.712,0.407-0.552,0.92
		c0.027,0.003,0.054,0.007,0.083,0.011c0.002,0.001-0.083-0.011-0.083-0.011l0.084,0.012c-29.479,9.155-51.811,28.967-73.709,49.428
		c-2.888,0.461-4.482,2.854-6.461,4.552c-6.916,5.937-13.839,11.778-22.48,15.186c-1.111,0.438-3.188,0.36-3.56,1.723v1.005
		c0.334,1.582,2.153,2.556,3.979,2.814c7.875,6.662,16.613,11.661,26.785,13.897C579.231,630.321,592.318,631.365,605.702,630.382z"
		/>
	<path style="fill:#FF21E4;" d="M841.047,609.437c24.755,15.079,49.831,27.797,76.375,37.561
		c13.445,6.657,27.468,11.845,41.74,16.398c9.53,4.706,19.257,9.057,28.534,14.216c9.319,5.183,17.649,11.871,25.361,19.282
		c0.995,0.956,1.878,2.783,3.576,2.06c2.059-0.878,1.104-3.024,1.091-4.582c-0.01-1.143-0.74-2.324-1.299-3.411
		c-9.168-17.845-19.012-35.282-30.911-51.493c-1.562-2.129-3.35-3.425-5.968-3.92c-18.557-3.511-36.195-10.049-53.857-16.502
		c-16.284-7.534-33.029-14.062-48.907-22.491c-1.822-0.967-3.472-2.978-6.005-1.963c-0.867-1.271-2.156-1.686-3.605-1.775
		c-1.996-1.709-3.871-4.458-6.39-0.558C856.003,599.657,849.004,604.631,841.047,609.437z"/>
	<path style="fill:#FF21E4;" d="M720.752,608.607c-25.139,11.053-50.743,20.772-77.668,26.574c-3.052,0.658-5.76,1.318-7.317,4.267
		c-9.293,11.092-17.115,23.099-22.709,36.493c-4.723,6.755-7.878,14.323-11.27,21.768c-1.662,2.792-3.324,5.584-6.033,10.134
		c5.148-1.977,7.006-4.56,8.624-7.43c7.141-7.044,15.066-13.144,23.042-19.185c7.187-3.885,14.374-7.771,21.561-11.656
		c28.649-13.646,59.294-22.51,87.755-36.609c0.947,0.351,1.523-0.107,1.951-0.891c7.487-3.973,14.974-7.945,22.46-11.918
		c7.118-2.5,13.545-6.133,19.829-11.163c-8.227-4.713-15.032-9.622-19.803-16.867c-1.36-2.065-2.734-3.044-5.487-1.576
		C744.119,596.714,732.409,602.611,720.752,608.607z"/>
	<path style="fill:#FF21E4;" d="M865.933,578.849c-0.423,1.541,0.392,2.938,1.864,3.666c10.531,5.21,20.346,11.937,31.86,15.07
		c1.048,0.495,2.097,0.99,3.145,1.486c5.216,4.08,11.187,6.433,17.631,7.703c13.71,6.366,27.989,11.08,42.524,15.189
		c27.754,7.846,55.663,11.966,84.268,5.034c0.851,0.475,1.555,0.495,1.896-0.612l0.339-0.158c2.141,0.42,4.128,0.317,5.57-1.638
		c9.445-2.865,18.291-6.871,25.75-13.518c1.352-0.44,2.918-0.85,3.636-1.95v-2.63c-0.764-0.917-2.462-0.929-3.538-1.547
		c-3.811-2.188-7.586-4.445-11.458-6.52c-6.258-3.352-10.102-9.8-16.602-12.816c-5.104-5.724-11.059-10.507-16.957-15.354
		c-5.559-5.884-11.816-10.865-18.977-14.677c-6.705-5.32-14.249-9.268-21.745-13.295c-0.762,0.199-1.366,0.105-1.522-0.819
		c-0.913-0.283-1.826-0.566-2.739-0.849c-8.666-5.539-18.015-9.225-28.282-10.421c-35.784-9.234-67.429-0.72-95.975,21.97
		c-3.639,2.892-3.621,5.132-1.404,8.377C865.483,566.636,867.637,572.645,865.933,578.849z"/>
	<path style="fill:#010101;" d="M1300.546,994.426c-9.696,0.259-19.409-0.122-29.102,0.191c-4.508,0.146-6.094-0.995-5.745-5.779
		c0.714-9.789-0.526-19.381-5.319-28.194c-10.224-18.799-28.423-20.772-41.542-4.535c-11.23-17.248-30.764-17.519-42.409,3.437
		c-5.895-10.626-14.404-16.724-26.81-14.953c-12.572,1.795-17.74,11.416-21.512,22.13c-9.901-7.052-15.817-8.722-23.691-5.378
		c-13.068,5.549-22.712,14.262-23.942,29.529c-0.176,2.179-0.122,3.757-3.082,3.741c-18.284-0.098-36.57-0.049-55.817-0.049
		c3.202-6.682,5.945-12.406,8.849-18.466c1.6,1.111,2.961,2.138,4.399,3.041c7.08,4.448,14.463,5.108,21.912,1.165
		c7.449-3.942,11.461-10.449,11.34-18.768c-0.068-4.694,1.158-8.703,2.893-12.841c8.548-20.386,17.118-40.781,21.869-62.487
		c3.931-17.959,5.472-35.973-1.383-53.608c-4.055-10.431-9.815-19.307-23.055-18.444c-2.445,0.159-2.838-1.024-2.999-3.04
		c-1.529-19.133-5.905-37.704-11.571-56.031c29.045-4.498,40.817-18.216,39.664-46.692c-0.214-5.299,2.832-4.082,5.518-4.342
		c25.935-2.515,42.274-25.925,34.764-50.63c-1.585-5.213-0.132-5.829,4.244-7.145c19.669-5.917,30.791-24.304,27.738-44.44
		c-1.464-9.657-7.014-17.025-13.398-24.326c33.949-7.06,46.395-40.244,25.268-65.94c-3.143-3.823-1.024-4.485,1.356-6.495
		c20.5-17.312,20.154-46.02-0.915-62.451c-3.476-2.71-3.33-3.903-0.578-7.051c17.303-19.788,12.378-48.769-10.547-60.964
		c-4.626-2.46-4.347-3.853-2.173-7.896c12.931-24.052-0.457-52.153-27.248-57.629c-3.483-0.712-7.065-0.947-10.93-1.445
		c0.593-1.075,0.905-1.704,1.272-2.299c16.877-27.416,2.405-58.162-29.474-61.907c-5.5-0.646-4.669-3.144-4.476-6.761
		c1.409-26.404-18.501-45.563-44.395-42.376c-5.06,0.623-5.308-0.926-5.714-5.192c-2.513-26.454-25.876-42.302-51.25-34.864
		c-3.836,1.125-5.097,1.096-6.338-3.362c-6.327-22.734-29.025-34.661-50.783-27.224c-6.829,2.334-12.562,6.386-17.521,11.71
		c-0.677-0.999-1.107-1.356-1.174-1.772c-5.327-33-44.35-44.003-65.802-23.112c-3.337,3.249-4.212,0.826-5.976-1.321
		c-16.962-20.649-45.817-20.562-62.496,0.41c-2.601,3.271-3.521,3.832-6.953,0.879c-20.634-17.749-48.921-12.434-61.753,11.666
		c-2.135,4.01-3.316,3.217-6.308,1.49c-9.188-5.303-19.042-6.87-29.442-4.159c-18.71,4.877-28.173,17.582-30.482,41.188
		c-0.77,0-1.092,0.103-1.257-0.015c-28.588-20.245-63.611,1.399-63.23,30.444c0.054,4.108-2.196,3.357-4.815,3.112
		c-27.045-2.532-46.837,16.967-44.288,43.889c0.414,4.37,0.048,5.67-4.906,5.999c-25.908,1.719-42.684,26.157-34.994,51.041
		c1.497,4.845,0.195,5.558-3.859,6.715c-15.197,4.335-24.634,14.513-27.977,29.898c-3.304,15.209,2.132,27.78,13.169,38.474
		c-0.934,0.374-1.551,0.754-2.213,0.867c-32.143,5.5-43.997,43.936-22.746,66.154c3.63,3.795-0.057,4.36-1.805,5.867
		c-14.077,12.14-18.558,29.31-12.079,45.734c3.382,8.572,9.552,14.729,16.951,19.882c-23.783,23.339-13.429,56.212,9.158,65.872
		c4.72,2.019,1.82,3.949,0.652,6.071c-9.679,17.589-5.893,37.382,9.283,50.52c8.229,7.124,18.071,8.575,28.311,8.807
		c-0.074,0.799-0.021,1.075-0.128,1.257c-18.034,30.556-4.869,58.459,30.306,63.743c3.643,0.547,2.934,2.137,2.858,4.383
		c-0.817,24.07,7.738,36.659,30.267,44.092c3.082,1.017,3.749,1.936,2.786,5.07c-5.193,16.897-9.048,34.099-10.81,51.72
		c-0.253,2.531-0.726,4.177-3.952,3.899c-11.133-0.959-16.573,6.686-20.862,14.989c-6.978,13.507-7.197,28.137-5.474,42.852
		c2.304,19.673,9.155,38.062,15.982,56.489c4.592,12.394,12.666,23.72,11.88,37.888c-0.11,1.988,1.393,4.212,2.528,6.099
		c7.213,11.989,19.781,13.484,34.497,3.889c2.094,4.228,3.991,8.511,6.288,12.567c2.31,4.08,2.479,5.889-3.288,5.769
		c-15.666-0.328-31.347-0.299-47.015-0.003c-4.372,0.082-5.604-0.921-6.208-5.463c-3.167-23.806-27.66-35.448-47.55-22.699
		c-3.705-10.737-8.982-20.177-21.54-21.944c-12.213-1.718-20.666,4.308-26.552,14.715c-14.595-20.557-26.845-21.276-42.894-2.997
		c-8.883-13.421-19.682-15.228-32.557-5.488c-5.546,4.196-9.25,9.667-11.311,16.248c-2.173,6.936-3.534,14.105-2.781,21.317
		c0.58,5.56-1.398,6.536-6.441,6.296c-9.184-0.437-18.409,0.057-27.605-0.227c-4.047-0.125-5.533,0.819-5.559,5.207
		c-0.027,4.697,2.035,5.209,5.866,5.116c8.702-0.212,17.439,0.345,26.112-0.203c6.846-0.433,9.629,1.066,10.688,8.79
		c2.494,18.192,15.252,22.749,29.835,11.435c4.236-3.287,7.971-7.219,11.963-10.881c1.986,4.163,3.54,8.076,5.632,11.676
		c4.472,7.694,9.688,15.375,19.805,14.62c10.574-0.789,18.9-6.431,22.963-16.519c1.568-3.892,3.309-3.705,6.566-3.256
		c11.671,1.611,22.636-0.076,30.1-10.211c3.208-4.356,6.496-5.617,11.674-5.609c93.789,0.139,187.579,0.07,281.369,0.07
		c115.434-0.001,230.868,0.051,346.301-0.072c4.893-0.005,8.136,1.078,11.059,5.303c6.862,9.917,17.433,12.31,28.433,10.737
		c5.65-0.808,7.177,0.877,9.496,5.329c9.482,18.198,30.353,18.811,40.824,1.407c2.542-4.225,4.452-8.83,6.746-13.447
		c3.653,3.43,7.039,7.033,10.849,10.111c15.297,12.358,27.023,8.12,30.948-11.041c0.249-1.216,0.82-2.453,0.724-3.638
		c-0.335-4.161,1.863-4.832,5.421-4.772c10.445,0.177,20.901-0.124,31.341,0.182c4.173,0.122,4.934-1.554,5.068-5.211
		C1305.679,995.662,1304.544,994.319,1300.546,994.426z M390.312,1015.144c-3.908,5.345-9.168,9.481-16.508,7.472
		c-7.028-1.924-10.375-7.371-11.333-14.206c-0.685-4.886-0.714-9.863-1.021-14.57c0.886-7.901,1.729-15.527,2.601-23.149
		c0.494-4.316,2.42-8.075,4.948-11.475c5.638-7.583,12.481-8.445,19.806-2.409c6.636,5.469,9.96,12.876,11.168,21.202
		C401.957,991.696,398.361,1004.134,390.312,1015.144z M440.353,1021.391c-4.963,8.282-14.489,10.808-23.218,6.156
		c-8.934-4.761-13.186-13.697-11.938-23.99c0.923-7.614,2.62-15.167,2.454-22.925c-0.267-3.706-0.304-7.445-0.847-11.11
		c-1.198-8.088,0.791-11.594,9.302-15.579c6.861-3.212,13.854-2.1,18.342,2.917C445.763,969.507,449.165,1006.687,440.353,1021.391z
		 M484.592,993.042c-3.802,14.304-15.876,21.302-30.271,18.012c-3.344-0.764-3.658-2.662-3.652-5.345
		c0.028-12.909,0.108-25.831-3.106-38.472c-0.553-2.172,0.136-3.856,1.376-5.518c4.315-5.783,16.805-9.943,24.367-8.089
		c7.199,1.765,11.651,7.708,12.81,17.266c0.298,2.459,0.327,4.95,0.48,7.426C486.743,983.346,485.867,988.245,484.592,993.042z
		 M527.131,993.589c-4.965,0.142-9.924,0.531-15.435,0.848c0.051,0-0.446-0.009-0.943,0.001
		c-17.437,0.359-17.437,0.359-14.131-16.878c1.475-7.692,15.421-11.555,22.526-6.073c5.959,4.599,8.712,11.304,11.159,18.151
		C531.453,992.844,529.958,993.508,527.131,993.589z M1046.743,973.638c-6.546,0.061-12.342-5.693-12.308-12.219
		c0.034-6.534,5.802-12.227,12.382-12.223c6.544,0.004,12.386,5.815,12.34,12.276
		C1059.112,968.04,1053.463,973.575,1046.743,973.638z M866.619,552.16c28.547-22.689,60.192-31.204,95.975-21.97
		c10.266,1.196,19.616,4.882,28.282,10.421c0.913,0.283,1.826,0.566,2.739,0.849c0,0,0,0,0,0c0.508,0.274,1.015,0.547,1.522,0.82
		c7.496,4.027,15.04,7.975,21.745,13.295c7.161,3.813,13.419,8.793,18.977,14.677c5.898,4.847,11.853,9.631,16.957,15.354
		c6.5,3.016,10.344,9.464,16.602,12.816c3.873,2.074,7.648,4.331,11.458,6.52c1.076,0.618,2.775,0.63,3.538,1.547
		c0.228,0.273,0.382,0.617,0.4,1.093c0.024,0.635-0.134,1.13-0.4,1.537c-0.718,1.099-2.284,1.509-3.636,1.95
		c-7.459,6.647-16.305,10.653-25.75,13.518c-1.442,1.955-3.429,2.059-5.57,1.638l-0.339,0.158c-0.34,1.107-1.044,1.087-1.896,0.612
		c-28.605,6.931-56.514,2.812-84.268-5.034c-14.535-4.109-28.814-8.823-42.524-15.189c-6.444-1.27-12.415-3.622-17.631-7.703
		c-1.048-0.495-2.096-0.99-3.145-1.486c-11.513-3.132-21.328-9.86-31.86-15.07c-1.471-0.728-2.287-2.125-1.864-3.666
		c1.704-6.204-0.45-12.213-0.719-18.311C862.998,557.292,862.98,555.053,866.619,552.16z M867.171,592.817
		c1.449,0.089,2.737,0.505,3.605,1.775c2.534-1.015,4.184,0.996,6.005,1.963c15.878,8.429,32.623,14.957,48.907,22.491
		c17.661,6.452,35.299,12.99,53.857,16.502c2.618,0.495,4.406,1.792,5.968,3.92c11.899,16.212,21.743,33.648,30.911,51.493
		c0.558,1.087,1.289,2.268,1.299,3.411c0.013,1.559,0.968,3.705-1.091,4.582c-1.697,0.723-2.58-1.103-3.576-2.06
		c-7.712-7.411-16.042-14.099-25.361-19.282c-9.277-5.16-19.004-9.511-28.534-14.216c-14.272-4.554-28.295-9.741-41.74-16.398
		c-26.544-9.764-51.62-22.481-76.375-37.561c7.957-4.807,14.956-9.781,19.733-17.178C863.3,588.359,865.175,591.108,867.171,592.817
		z M775.886,549.356c13.75-10.438,29.397-13.733,46.382-10.139c19.729,1.136,36.956,17.894,35.938,34.976
		c-0.086,1.449,0.036,2.993-1.296,4.057c-5.102,18.721-20.274,24.644-36.794,27.676c-14.565,2.673-28.62-0.35-41.428-8.148
		C759.75,586.248,758.216,562.771,775.886,549.356z M761.173,592.123c4.771,7.245,11.576,12.153,19.803,16.867
		c-6.283,5.03-12.711,8.662-19.829,11.163c-7.487,3.973-14.974,7.945-22.46,11.918c-0.428,0.784-1.004,1.243-1.951,0.891
		c-28.461,14.099-59.105,22.962-87.755,36.609c-7.187,3.885-14.374,7.771-21.561,11.656c-7.975,6.041-15.901,12.142-23.042,19.185
		c-1.618,2.87-3.476,5.453-8.624,7.43c2.709-4.55,4.371-7.342,6.033-10.134c3.392-7.445,6.547-15.013,11.27-21.768
		c5.594-13.394,13.416-25.401,22.709-36.493c1.557-2.948,4.265-3.609,7.317-4.267c26.926-5.802,52.529-15.521,77.668-26.574
		c11.657-5.996,23.367-11.893,34.933-18.06C758.438,589.079,759.813,590.058,761.173,592.123z M566.822,624.667
		c-10.172-2.236-18.91-7.235-26.785-13.897c-1.826-0.258-3.645-1.232-3.979-2.814c-0.001-0.005-0.004-0.01-0.005-0.015
		c-0.082-0.399-0.068-0.72,0.005-0.99c0.372-1.363,2.448-1.285,3.56-1.723c8.641-3.408,15.564-9.249,22.48-15.186
		c1.979-1.698,3.573-4.092,6.461-4.552c21.897-20.461,44.23-40.273,73.709-49.428l-0.084-0.012c-0.16-0.513,0.024-0.819,0.552-0.92
		c16.634-7.953,34.238-10.258,52.446-8.942c0.549,0.04,1.042,0.849,1.561,1.3c4.149,3.4,9.077,0.395,13.587,1.722
		c16.398,4.825,31.492,11.948,44.545,23.209c2.724,2.35,3.529,4.149,1.736,7.449c-1.917,3.528-3.052,7.857-2.213,11.557
		c1.986,8.76-2.299,12.677-9.65,15.016c-6.446,4.306-13.148,8.089-20.691,10.159c-32.476,15.75-66.111,27.949-102.043,32.941
		c-5.372,0.746-10.87,0.583-16.31,0.841C592.318,631.365,579.231,630.321,566.822,624.667z M574.105,973.599
		c-6.593-0.14-11.697-5.317-11.754-11.92c-0.059-6.869,5.411-12.507,12.105-12.476c6.786,0.031,12.124,5.513,12.122,12.447
		C586.577,968.421,581.018,973.746,574.105,973.599z M1000.8,994.527c-57.957,0.069-115.914,0.066-173.872,0.062
		c-68.901-0.005-137.803-0.11-206.703,0.114c-5.886,0.019-9.122-1.796-11.454-6.996c-4.871-10.865-10.482-21.364-13.996-32.857
		c-2.406-7.87-8.094-13.478-16.536-14.273c-6.758-0.636-7.278-3.305-5.681-8.975c3.972-14.099,8.113-28.216,7.341-43.156
		c-0.412-7.981-1.319-15.869-4.276-23.35c-1.086-2.746-2.45-5.457-4.128-7.879c-4.962-7.163-12.182-10.841-16.705-8.208
		c-6.955,4.048-4.595,10.907-4.009,16.853c0.38,3.859,2.053,7.59,3.583,12.888c3.028-7.196,0.595-13.932,3.8-19.87
		c5.062,3.29,6.092,8.509,7.192,13.434c3.112,13.932,3.274,28.103,2.803,42.299c-0.223,6.71-1.283,13.715,0.858,20.016
		c2.05,6.034-1.686,6.7-5.19,8.378c-4.969,2.38-4.694-2.411-5.567-4.517c-8.474-20.436-16.96-40.922-20.476-62.938
		c-2.255-14.123-2.625-28.276,3.627-41.716c4.324-9.298,9.097-10.779,17.69-5.369c17.135,10.788,27.419,27.005,35.274,45.089
		c0.876,2.017,1.735,4.041,3.62,5.921c-0.678-7.86-1.489-15.711-2.01-23.582c-2.053-31.007,0.751-61.483,9.105-91.525
		c10.279-36.966,35.705-60.421,67.931-78.126c29.22-16.054,61.092-22.197,93.85-23.828c40.49-2.015,81.021-2.658,121.294,3.763
		c37.897,6.043,71.159,21.855,98.972,48.25c21.573,20.474,30.112,47.472,34.956,75.839c4.934,28.894,4.825,57.902,0.949,86.925
		c-0.209,1.567-0.252,3.156-0.372,4.735c4.973-10.345,9.505-20.768,15.908-30.246c6.639-9.828,14.81-18.062,25.083-24.023
		c7.14-4.143,11.376-2.973,15.255,4.385c7.857,14.905,7.218,30.779,4.066,46.594c-4.23,21.226-12.153,41.296-20.598,61.141
		c-0.697,1.637-0.816,5.409-4.174,3.376c-2.378-1.44-7.228-0.82-6.283-5.785c3.289-17.288-0.158-34.782,1.649-52.075
		c0.964-9.221,2.136-18.651,8.99-26.986c3.358,6.327,2.484,12.541,3.852,18.574c3.603-7.112,6.176-14.544,4.163-22.657
		c-1.384-5.578-6.293-7.396-11.827-4.834c-7.578,3.508-11.512,10.138-13.847,17.671c-4.829,15.582-4.582,31.358-0.847,47.131
		c1.602,6.766,3.435,13.477,5.08,20.234c0.836,3.432,0.129,5.317-4.147,5.768c-10.624,1.119-16.566,7.534-19.533,17.734
		c-3.411,11.725-9.448,22.387-14.977,33.238C1008.144,995.755,1004.289,994.523,1000.8,994.527z M1112.759,994.458
		c-1.24-0.023-2.482-0.003-3.309-0.003c-4.875-0.305-9.336-0.843-13.789-0.788c-4.394,0.054-5.966-1.221-4.196-5.651
		c2.227-5.574,4.767-10.855,9.162-15.143c4.457-4.348,9.632-5.07,15.128-3.082c5.379,1.946,8.861,5.072,9.193,11.867
		C1125.584,994.732,1126.085,994.705,1112.759,994.458z M1173.708,967.545c-2.904,12.12-3.641,24.518-3.312,36.935
		c0.126,4.767-1.448,6.468-6.25,6.793c-16.696,1.13-25.779-5.774-28.44-22.321c-0.511-3.176-0.647-6.413-0.99-9.977
		c0.083-1.638,0.076-3.629,0.302-5.593c0.897-7.795,2.139-15.767,10.614-18.944c9.55-3.58,17.978-0.231,25.421,6.054
		C1173.189,962.296,1174.513,964.188,1173.708,967.545z M1203.934,1027.694c-9.607,4.682-18.939,1.699-23.953-7.86
		c-3.678-7.014-4.315-14.672-4.255-25.426c0.255-8.251,1.959-19.271,6.214-29.712c7.296-17.903,21.787-14.693,32.449-4.015
		c1.066,1.067,1.856,2.264,1.279,3.967c-4.605,13.573-1.603,27.152,0.824,40.482
		C1218.099,1013.951,1210.565,1024.462,1203.934,1027.694z M1257.224,1013.833c-3.907,9.302-13.099,12.04-21.261,6.286
		c-17.568-12.385-20.635-46.2-5.495-61.463c3.747-3.777,8.063-7.187,13.802-5.28c6.988,2.321,10.762,8.087,12.212,14.84
		c2.082,9.693,3.023,19.6,3.167,29.543C1259.772,1003.262,1259.392,1008.67,1257.224,1013.833z"/>
	<path style="fill:#A57B62;" d="M1044.992,940.195c4.276-0.45,4.983-2.336,4.147-5.768c-1.645-6.757-3.478-13.468-5.08-20.234
		c-3.735-15.773-3.983-31.549,0.847-47.131c2.335-7.533,6.268-14.163,13.847-17.671c5.534-2.562,10.443-0.744,11.827,4.834
		c2.012,8.113-0.56,15.545-4.163,22.657c-1.369-6.033-0.495-12.247-3.852-18.574c-6.854,8.335-8.026,17.765-8.99,26.986
		c-1.807,17.293,1.64,34.787-1.649,52.075c-0.945,4.965,3.905,4.345,6.283,5.785c3.358,2.033,3.478-1.739,4.174-3.376
		c8.445-19.845,16.367-39.915,20.598-61.141c3.152-15.815,3.791-31.689-4.066-46.594c-3.879-7.358-8.115-8.528-15.255-4.385
		c-10.273,5.961-18.444,14.195-25.083,24.023c-6.403,9.478-10.935,19.902-15.908,30.246c0.12-1.579,0.163-3.168,0.372-4.735
		c3.876-29.022,3.985-58.031-0.949-86.925c-4.844-28.367-13.384-55.365-34.956-75.839c-27.813-26.396-61.075-42.208-98.972-48.25
		c-40.273-6.422-80.803-5.779-121.294-3.763c-32.758,1.63-64.63,7.774-93.85,23.828c-32.225,17.705-57.652,41.16-67.931,78.126
		c-8.354,30.042-11.158,60.518-9.105,91.525c0.521,7.871,1.332,15.722,2.01,23.582c-1.884-1.88-2.744-3.904-3.62-5.921
		c-7.855-18.084-18.138-34.3-35.274-45.089c-8.593-5.41-13.366-3.928-17.69,5.369c-6.252,13.44-5.883,27.593-3.627,41.716
		c3.515,22.016,12.002,42.502,20.476,62.938c0.873,2.106,0.598,6.897,5.567,4.517c3.504-1.678,7.239-2.345,5.19-8.378
		c-2.141-6.302-1.081-13.306-0.858-20.016c0.471-14.196,0.309-28.367-2.803-42.299c-1.1-4.925-2.13-10.144-7.192-13.434
		c-3.205,5.938-0.772,12.674-3.8,19.87c-1.53-5.298-3.203-9.029-3.583-12.888c-0.586-5.946-2.946-12.805,4.009-16.853
		c4.523-2.632,11.743,1.045,16.705,8.208c1.678,2.422,3.043,5.133,4.128,7.879c2.957,7.48,3.863,15.369,4.276,23.35
		c0.772,14.94-3.368,29.057-7.341,43.156c-1.598,5.67-1.078,8.339,5.681,8.975c8.442,0.795,14.13,6.403,16.536,14.273
		c3.514,11.494,9.125,21.992,13.996,32.857c2.331,5.2,5.568,7.015,11.454,6.996c68.9-0.224,137.802-0.118,206.703-0.114
		c57.957,0.004,115.915,0.007,173.872-0.062c3.488-0.004,7.344,1.229,9.682-3.359c5.529-10.851,11.566-21.513,14.977-33.238
		C1028.425,947.73,1034.367,941.314,1044.992,940.195z M629.903,785.914c4.432-6.867,10.605-11.736,17.925-15.202
		c23.894-11.313,49.177-16.735,73.751-17.842c14.006,0.225,26.02,1.544,37.073,7.449c4.54,2.426,8.105,5.323,8.229,11.287
		c0.122,5.892-4.205,6.955-7.994,9.264c-9.949,6.063-19.081,4.099-29.32-0.205c-25.299-10.636-50.853-9.408-75.812,1.837
		c-6.305,2.841-12.142,6.705-18.301,9.891c-2.072,1.072-4.727,3.139-6.784,0.932C626.402,790.892,628.433,788.192,629.903,785.914z
		 M748.589,921.607c-29.409-9.992-58.991-10.216-88.385,0.146c-3.778,1.332-5.273,0.261-6.966-2.672
		c-6.887-11.934-10.454-24.816-9.669-38.502c0.342-5.952-1.508-8.85-6.645-11.397c-11.437-5.668-17.581-15.789-20.766-28.089
		c2.62,3.098,5.146,6.282,7.881,9.276c4.639,5.078,10.343,8.489,17.024,10.171c1.806,0.455,3.859,2.026,5.448-0.171
		c1.865-2.579-0.368-4.061-1.92-5.604c-9.03-8.98-14.69-19.913-18.504-31.912c-0.351-1.104-0.502-2.271-1.217-5.607
		c6.83,10.939,12.437,20.1,21.318,26.419c1.962,1.396,4.009,4.706,6.917,2.318c2.774-2.277,1.389-5.09,0.104-8.046
		c-3.815-8.772-7.758-17.671-3.464-28.459c1.543,8.092,3.799,14.938,8.451,20.815c2.11,2.666,3.451,3.996,6.905,0.958
		c18.684-16.428,40.067-21.186,62.908-10.643c24.059,11.105,35.493,31.552,37.499,57.537c1.102,14.275-2.246,27.592-8.963,40.193
		C754.642,921.909,753.077,923.131,748.589,921.607z M798.466,979.414c-0.309,1.588-1.287,2.788-2.9,2.989
		c-1.688,0.211-3.424,0.047-5.138,0.047c-0.017-0.194-0.034-0.388-0.051-0.582c-3.915,0.536-7.87,0.875-11.734,1.662
		c-3.872,0.789-7.374,0.174-10.733-1.714c-5.406-3.038-7.134-8.525-4.257-13.921c3.047-5.715,8.056-6.944,13.169-3.82
		c6.699,4.094,12.31,9.937,20.098,12.323C798.213,976.794,798.73,978.059,798.466,979.414z M860.945,761.091
		c11.298-7.509,24.112-7.653,38.225-8.283c25.739,1.432,51.847,6.643,76.215,19.006c7.027,3.565,12.815,8.5,16.814,15.367
		c1.112,1.91,2.656,4.038,0.786,6.12c-1.666,1.855-3.787,0.463-5.524-0.27c-2.507-1.059-4.944-2.341-7.276-3.752
		c-30.359-18.363-61.954-20.76-94.403-6.517c-10.154,4.457-18.424,2.111-26.223-4.13
		C852.432,772.927,853.309,766.167,860.945,761.091z M858.826,974c-0.408,4.995-3.909,7.742-8.538,9.268
		c-4.299,1.417-8.349-0.205-12.503-0.676c-2.46-0.279-4.935-0.436-6.253-0.549c-2.155,0.299-3.151,0.6-4.122,0.537
		c-1.863-0.12-4.101,0.443-4.86-2.222c-0.839-2.946,0.981-4.02,3.275-4.8c5.977-2.033,11.124-5.3,15.718-9.685
		c3.488-3.329,7.927-4.369,12.398-2.038C857.914,965.904,859.157,969.942,858.826,974z M984.78,868.894
		c-6.22,3.139-7.745,6.732-7.305,13.111c0.896,13.002-2.93,25.01-9.011,36.432c-1.963,3.687-3.771,4.579-8.087,3.12
		c-18.993-6.423-38.165-8.694-58.502-5.779c-10.544,1.512-20.853,2.967-30.863,6.44c-2.392,0.83-3.498,0.261-4.789-1.747
		c-24.318-37.804-6.26-92.091,36.424-103.312c19.62-5.158,37.588-0.381,52.575,13.349c4.586,4.201,6.352,2.474,8.763-1.529
		c4.5-7.472,6.19-15.644,6.292-26.072c4.303,13.161,3.039,24.164-1.961,34.876c-1.29,2.763-3.179,5.491-0.169,8.037
		c3.555,3.007,5.291-1.209,7.318-2.612c6.34-4.385,10.81-10.719,16.275-16.511c-1.065,8.193-4.393,15.385-9.47,21.77
		c-1.545,1.943-3.292,3.726-4.967,5.564c-1.62,1.777-4.457,3.384-2.602,6.183c1.898,2.864,4.639,0.406,6.753-0.127
		c8.016-2.021,13.907-7.058,24.844-20.811C1002.786,853.349,996.033,863.215,984.78,868.894z"/>
	<path style="fill:#A57B62;" d="M416.106,953.942c-8.512,3.985-10.501,7.491-9.302,15.579c0.543,3.665,0.58,7.404,0.847,11.11
		c0.166,7.758-1.531,15.311-2.454,22.925c-1.248,10.293,3.004,19.229,11.938,23.99c8.729,4.652,18.255,2.126,23.218-6.156
		c8.812-14.704,5.41-51.885-5.905-64.532C429.96,951.842,422.967,950.73,416.106,953.942z"/>
	<path style="fill:#A57B62;" d="M1215.669,964.648c0.578-1.703-0.213-2.9-1.279-3.967c-10.662-10.678-25.153-13.888-32.449,4.015
		c-4.255,10.441-5.96,21.461-6.214,29.712c-0.061,10.755,0.576,18.412,4.255,25.426c5.013,9.559,14.346,12.542,23.953,7.86
		c6.631-3.232,14.165-13.743,12.559-22.564C1214.065,991.8,1211.063,978.221,1215.669,964.648z"/>
	<path style="fill:#A57B62;" d="M1256.483,968.217c-1.45-6.753-5.224-12.519-12.212-14.84c-5.739-1.906-10.055,1.503-13.802,5.28
		c-15.141,15.263-12.074,49.078,5.495,61.463c8.162,5.754,17.354,3.016,21.261-6.286c2.169-5.163,2.548-10.571,2.426-16.074
		C1259.506,987.817,1258.564,977.909,1256.483,968.217z"/>
	<path style="fill:#A57B62;" d="M388.804,956.807c-7.325-6.037-14.168-5.174-19.806,2.409c-2.528,3.4-4.455,7.16-4.948,11.475
		c-0.872,7.622-1.715,15.248-2.601,23.149c0.307,4.707,0.336,9.685,1.021,14.57c0.958,6.835,4.305,12.282,11.333,14.206
		c7.34,2.009,12.6-2.127,16.508-7.472c8.049-11.01,11.645-23.449,9.66-37.136C398.765,969.683,395.44,962.276,388.804,956.807z"/>
	<path style="fill:#A57B62;" d="M486.116,970.896c-1.16-9.558-5.611-15.5-12.81-17.266c-7.562-1.854-20.052,2.306-24.367,8.089
		c-1.24,1.662-1.929,3.346-1.376,5.518c3.215,12.642,3.135,25.564,3.106,38.472c-0.006,2.683,0.308,4.581,3.652,5.345
		c14.396,3.29,26.47-3.708,30.271-18.012c1.275-4.798,2.151-9.696,2.004-14.72C486.444,975.846,486.414,973.355,486.116,970.896z"/>
	<path style="fill:#A57B62;" d="M1171.053,960.492c-7.443-6.285-15.871-9.635-25.421-6.054c-8.475,3.178-9.716,11.149-10.614,18.944
		c-0.226,1.964-0.219,3.955-0.302,5.593c0.343,3.564,0.479,6.8,0.99,9.977c2.661,16.548,11.744,23.451,28.44,22.321
		c4.802-0.325,6.377-2.026,6.25-6.793c-0.329-12.417,0.408-24.816,3.312-36.935C1174.513,964.188,1173.189,962.296,1171.053,960.492
		z"/>
	<path style="fill:#A57B62;" d="M519.149,971.489c-7.105-5.483-21.05-1.619-22.526,6.073c-3.306,17.237-3.306,17.236,14.131,16.878
		c0.497-0.01,0.994-0.001,0.943-0.001c5.511-0.317,10.469-0.706,15.435-0.848c2.827-0.081,4.322-0.745,3.177-3.949
		C527.861,982.792,525.108,976.087,519.149,971.489z"/>
	<path style="fill:#A57B62;" d="M1115.754,969.791c-5.496-1.988-10.671-1.266-15.128,3.082c-4.395,4.288-6.935,9.569-9.162,15.143
		c-1.77,4.43-0.198,5.705,4.196,5.651c4.453-0.055,8.915,0.484,13.789,0.788c0.827,0,2.068-0.02,3.309,0.003
		c13.327,0.247,12.825,0.273,12.188-12.801C1124.615,974.863,1121.133,971.737,1115.754,969.791z"/>
	<path style="fill:#82FFF9;" d="M1046.818,949.196c-6.581-0.004-12.348,5.689-12.382,12.223c-0.034,6.526,5.761,12.28,12.308,12.219
		c6.719-0.063,12.369-5.598,12.415-12.166C1059.204,955.012,1053.363,949.2,1046.818,949.196z"/>
	<path style="fill:#82FFF9;" d="M574.457,949.202c-6.694-0.031-12.164,5.606-12.105,12.476c0.057,6.603,5.161,11.78,11.754,11.92
		c6.913,0.147,12.471-5.178,12.473-11.949C586.581,954.715,581.242,949.234,574.457,949.202z"/>
	<path style="fill:#A57B62;" d="M995.136,542.28c-0.507-0.273-1.013-0.546-1.522-0.82c0,0,0,0,0,0
		C993.77,542.385,994.374,542.479,995.136,542.28z"/>
	<path style="fill:#A57B62;" d="M642.183,536.051c0,0,0.084,0.012,0.083,0.011C642.238,536.058,642.211,536.054,642.183,536.051z"/>
	<path style="fill:#010101;" d="M981.455,860.086c-2.115,0.533-4.855,2.991-6.753,0.127c-1.855-2.799,0.982-4.406,2.602-6.183
		c1.675-1.837,3.422-3.621,4.967-5.564c5.077-6.385,8.404-13.577,9.47-21.77c-5.465,5.792-9.935,12.126-16.275,16.511
		c-2.028,1.402-3.763,5.618-7.318,2.612c-3.01-2.546-1.121-5.274,0.169-8.037c5-10.712,6.264-21.715,1.961-34.876
		c-0.101,10.428-1.792,18.6-6.292,26.072c-2.41,4.003-4.177,5.73-8.763,1.529c-14.988-13.73-32.955-18.506-52.575-13.349
		c-42.684,11.221-60.742,65.508-36.424,103.312c1.291,2.008,2.398,2.577,4.789,1.747c10.01-3.472,20.319-4.928,30.863-6.44
		c20.337-2.915,39.509-0.644,58.502,5.779c4.315,1.459,6.123,0.567,8.087-3.12c6.082-11.422,9.907-23.429,9.011-36.432
		c-0.44-6.379,1.085-9.972,7.305-13.111c11.253-5.678,18.006-15.545,21.52-29.618C995.362,853.029,989.471,858.065,981.455,860.086z
		 M881.858,875.352c-5.311-0.197-8.384-3.623-8.468-8.581c-0.091-5.429,3.426-9.042,8.858-8.993
		c5.321,0.048,8.605,3.309,8.853,9.096C890.343,872.177,887.584,875.564,881.858,875.352z M922.357,902.008
		c-3.226,0.104-5.047-1.836-4.998-4.997c0.043-2.808,1.884-4.689,4.612-4.75c3.096-0.07,4.903,1.809,4.998,5.034
		C926.769,900.211,925.159,901.918,922.357,902.008z M961.292,913.005c-1.905,3.29-3.471,4.531-7.518,2.842
		c-7.552-3.152-15.793-3.863-24.857-5.225c14.099-15.198,17.929-31.482,8.798-49.242c-8.982-17.471-24.854-22.979-43.846-21.831
		c31.231-14.117,60.449,2.207,70.367,24.957C971.487,881.138,970.398,897.284,961.292,913.005z"/>
	<path style="fill:#010101;" d="M765.508,878.145c-2.006-25.986-13.44-46.433-37.499-57.537
		c-22.842-10.543-44.225-5.785-62.908,10.643c-3.455,3.038-4.795,1.708-6.905-0.958c-4.651-5.877-6.907-12.724-8.451-20.815
		c-4.293,10.788-0.351,19.687,3.464,28.459c1.286,2.956,2.67,5.769-0.104,8.046c-2.908,2.388-4.955-0.923-6.917-2.318
		c-8.881-6.319-14.488-15.48-21.318-26.419c0.715,3.336,0.866,4.504,1.217,5.607c3.814,11.998,9.473,22.932,18.504,31.912
		c1.551,1.543,3.784,3.025,1.92,5.604c-1.589,2.197-3.642,0.626-5.448,0.171c-6.682-1.682-12.386-5.093-17.024-10.171
		c-2.734-2.994-5.261-6.178-7.881-9.276c3.186,12.3,9.329,22.42,20.766,28.089c5.137,2.546,6.987,5.444,6.645,11.397
		c-0.786,13.686,2.782,26.568,9.669,38.502c1.693,2.933,3.188,4.004,6.966,2.672c29.394-10.362,58.976-10.138,88.385-0.146
		c4.487,1.525,6.052,0.303,7.956-3.269C763.262,905.737,766.61,892.42,765.508,878.145z M666.833,875.448
		c-5.636-0.626-8.922-3.579-8.789-9.143c0.135-5.665,3.877-8.596,9.197-8.414c5.059,0.173,8.31,3.539,8.323,8.647
		C675.579,872.052,672.093,874.902,666.833,875.448z M707.166,901.995c-3.231,0.234-5.244-1.756-5.309-4.733
		c-0.065-3.006,1.882-4.971,5.151-4.841c2.905,0.115,4.229,1.987,4.66,4.764C711.252,899.761,710.021,901.789,707.166,901.995z
		 M750.021,911.878c-2.313,3.837-4.319,5.795-9.303,3.648c-7.953-3.426-16.748-3.737-26.04-5.094
		c13.816-15.428,17.216-32.38,7.187-50.209c-8.57-15.234-22.649-21.498-40.139-20.351c13.666-7.188,27.665-7.662,41.986-2.195
		C754.765,849.531,766.891,883.893,750.021,911.878z"/>
	<path style="fill:#010101;" d="M859.56,778.631c7.799,6.241,16.07,8.587,26.223,4.13c32.448-14.243,64.043-11.846,94.403,6.517
		c2.332,1.411,4.769,2.693,7.276,3.752c1.737,0.733,3.858,2.126,5.524,0.27c1.87-2.081,0.326-4.21-0.786-6.12
		c-3.999-6.867-9.787-11.802-16.814-15.367c-24.368-12.363-50.476-17.574-76.215-19.006c-14.113,0.63-26.927,0.774-38.225,8.283
		C853.309,766.167,852.432,772.927,859.56,778.631z"/>
	<path style="fill:#010101;" d="M635.454,792.393c6.159-3.186,11.996-7.05,18.301-9.891c24.959-11.245,50.513-12.473,75.812-1.837
		c10.239,4.304,19.37,6.269,29.32,0.205c3.789-2.309,8.116-3.372,7.994-9.264c-0.124-5.964-3.689-8.861-8.229-11.287
		c-11.052-5.906-23.067-7.225-37.073-7.449c-24.573,1.107-49.857,6.529-73.751,17.842c-7.32,3.466-13.493,8.335-17.925,15.202
		c-1.47,2.277-3.501,4.978-1.233,7.411C630.727,795.533,633.382,793.465,635.454,792.393z"/>
	<path style="fill:#010101;" d="M853.942,963.834c-4.471-2.33-8.91-1.291-12.398,2.038c-4.595,4.385-9.742,7.652-15.718,9.685
		c-2.294,0.78-4.114,1.854-3.275,4.8c0.759,2.665,2.997,2.102,4.86,2.222c0.972,0.063,1.967-0.238,4.122-0.537
		c1.318,0.113,3.792,0.27,6.253,0.549c4.154,0.471,8.204,2.093,12.503,0.676c4.628-1.525,8.13-4.273,8.538-9.268
		C859.157,969.942,857.914,965.904,853.942,963.834z"/>
	<path style="fill:#010101;" d="M796.92,976.398c-7.789-2.385-13.399-8.229-20.098-12.323c-5.113-3.124-10.122-1.895-13.169,3.82
		c-2.877,5.396-1.149,10.883,4.257,13.921c3.359,1.888,6.861,2.503,10.733,1.714c3.864-0.787,7.819-1.127,11.734-1.662
		c0.017,0.194,0.034,0.388,0.051,0.582c1.715,0,3.45,0.164,5.138-0.047c1.613-0.201,2.591-1.401,2.9-2.989
		C798.73,978.059,798.213,976.794,796.92,976.398z"/>
	<path style="fill:#F9F6F9;" d="M893.869,839.549c18.992-1.148,34.864,4.359,43.846,21.831c9.131,17.761,5.301,34.045-8.798,49.242
		c9.064,1.362,17.305,2.072,24.857,5.225c4.047,1.69,5.612,0.449,7.518-2.842c9.106-15.72,10.194-31.867,2.944-48.499
		C954.319,841.756,925.1,825.432,893.869,839.549z"/>
	<path style="fill:#F9F6F9;" d="M882.248,857.779c-5.432-0.049-8.95,3.564-8.858,8.993c0.084,4.958,3.157,8.384,8.468,8.581
		c5.727,0.212,8.485-3.176,9.243-8.478C890.853,861.088,887.569,857.826,882.248,857.779z"/>
	<path style="fill:#F9F6F9;" d="M921.971,892.261c-2.728,0.062-4.569,1.943-4.612,4.75c-0.049,3.162,1.772,5.102,4.998,4.997
		c2.802-0.09,4.412-1.797,4.611-4.713C926.874,894.07,925.066,892.19,921.971,892.261z"/>
	<path style="fill:#F9F6F9;" d="M723.711,837.677c-14.321-5.467-28.32-4.993-41.986,2.195c17.49-1.148,31.569,5.117,40.139,20.351
		c10.03,17.829,6.629,34.781-7.187,50.209c9.292,1.357,18.087,1.668,26.04,5.094c4.984,2.147,6.99,0.189,9.303-3.648
		C766.891,883.893,754.765,849.531,723.711,837.677z"/>
	<path style="fill:#F9F6F9;" d="M667.242,857.891c-5.32-0.182-9.062,2.749-9.197,8.414c-0.133,5.564,3.153,8.516,8.789,9.143
		c5.26-0.546,8.745-3.396,8.731-8.91C675.552,861.43,672.301,858.064,667.242,857.891z"/>
	<path style="fill:#F9F6F9;" d="M707.008,892.421c-3.269-0.13-5.216,1.836-5.151,4.841c0.064,2.978,2.078,4.967,5.309,4.733
		c2.855-0.206,4.087-2.234,4.503-4.811C711.237,894.408,709.913,892.536,707.008,892.421z"/>
</g>
</svg>
